PathFileType	4	(X/Y/Z)	/Users/itak/Documents/Research/Walk-IL/dataset/trc/00454_00167.trc
DataRate	CameraRate	NumFrames	NumMarkers	Units	OrigDataRate	OrigDataStartFrame	OrigNumFrames
100.000000	100.000000	4	53	mm	100.000000	183	489
Frame#	Time	RPSI			LPSI			L3			STRN			T10			C7			CLAV			RBAK			LBAK			LSHO			LUPA			LAEL			LAOL			LWTS			LWPS			LFRA			LIFD			LHPS			LHTS			RSHO			RUPA			RAEL			RAOL			RWTS			RWPS			RFRA			RIFD			RHTS			RHPS			RBHD			LFHD			RFHD			LBHD			LHIP			RHIP			RASI			LASI			LKNE			LTHI			LANK			LTIP			LTOE			LMT1			LMT5			LHEE			RKNE			RTHI			RANK			RTIP			RTOE			RMT1			RMT5			RHEE			
		X1	Y1	Z1	X2	Y2	Z2	X3	Y3	Z3	X4	Y4	Z4	X5	Y5	Z5	X6	Y6	Z6	X7	Y7	Z7	X8	Y8	Z8	X9	Y9	Z9	X10	Y10	Z10	X11	Y11	Z11	X12	Y12	Z12	X13	Y13	Z13	X14	Y14	Z14	X15	Y15	Z15	X16	Y16	Z16	X17	Y17	Z17	X18	Y18	Z18	X19	Y19	Z19	X20	Y20	Z20	X21	Y21	Z21	X22	Y22	Z22	X23	Y23	Z23	X24	Y24	Z24	X25	Y25	Z25	X26	Y26	Z26	X27	Y27	Z27	X28	Y28	Z28	X29	Y29	Z29	X30	Y30	Z30	X31	Y31	Z31	X32	Y32	Z32	X33	Y33	Z33	X34	Y34	Z34	X35	Y35	Z35	X36	Y36	Z36	X37	Y37	Z37	X38	Y38	Z38	X39	Y39	Z39	X40	Y40	Z40	X41	Y41	Z41	X42	Y42	Z42	X43	Y43	Z43	X44	Y44	Z44	X45	Y45	Z45	X46	Y46	Z46	X47	Y47	Z47	X48	Y48	Z48	X49	Y49	Z49	X50	Y50	Z50	X51	Y51	Z51	X52	Y52	Z52	X53	Y53	Z53	

184	1.83	-1753.103759765625	938.8472900390625	-494.2968139648438	-1677.623779296875	935.8484497070312	-615.33935546875	-1700.366455078125	1035.117919921875	-531.5028076171875	-1441.61279296875	1203.753540039062	-394.6959533691406	-1698.880126953125	1158.842651367188	-537.5673217773438	-1624.543212890625	1418.77587890625	-480.6883239746094	-1461.427368164062	1320.9169921875	-410.6207885742188	-1734.349731445312	1309.237670898438	-441.6476135253906	-1613.604614257812	1375.715698242188	-581.2327880859375	-1485.805786132812	1393.474487304688	-609.6430053710938	-1470.118041992188	1283.789916992188	-716.11181640625	-1466.786865234375	1070.600952148438	-761.6152954101562	-1562.807250976562	1059.47314453125	-724.6176147460938	-1395.221923828125	877.3633422851562	-694.9866333007812	-1429.776733398438	853.967529296875	-758.1966552734375	-1442.7939453125	983.5416870117188	-763.633056640625	-1375.428955078125	710.964599609375	-684.452392578125	-1414.724609375	773.5430908203125	-750.7755737304688	-1367.720703125	791.4217529296875	-696.9474487304688	-1648.77587890625	1387.884521484375	-311.9629211425781	-1715.753540039062	1335.827758789062	-265.9248657226562	-1811.481079101562	1068.899047851562	-227.67529296875	-1837.838745117188	1059.35546875	-289.6663208007812	-1743.354248046875	848.3741455078125	-218.1543426513672	-1829.857543945312	853.1412353515625	-202.2106781005859	-1824.496948242188	1011.439331054688	-218.7659149169922	-1783.593505859375	693.5457153320312	-213.5535736083984	-1760.138671875	748.829345703125	-200.9352416992188	-1834.42724609375	765.7758178710938	-194.3770294189453	-1603.75537109375	1603.780517578125	-376.8568115234375	-1413.571166992188	1631.78515625	-455.8113098144531	-1474.308715820312	1635.051635742188	-339.6511840820312	-1536.649291992188	1602.051025390625	-541.7215576171875	-1512.974975585938	812.218017578125	-646.488525390625	-1730.13525390625	833.2285766601562	-311.0696105957031	-1609.163330078125	865.5306396484375	-318.6375732421875	-1464.44189453125	848.489501953125	-529.375244140625	-1570.577026367188	389.4280090332031	-608.959228515625	-1515.6240234375	539.1777954101562	-608.7545776367188	-1791.60595703125	39.31110000610352	-732.2847900390625	-1637.0654296875	252.2207641601562	-656.7432861328125	-1643.315307617188	47.58307647705078	-549.3795166015625	-1718.69873046875	54.47581481933594	-563.8466796875	-1658.974853515625	46.28445816040039	-663.0053100585938	-1866.652954101562	48.78163909912109	-719.3761596679688	-1686.194213867188	443.6957702636719	-283.2134704589844	-1686.5185546875	700.3896484375	-275.4625854492188	-1936.717163085938	97.28254699707031	-377.8437194824219	-1766.002197265625	320.5900573730469	-298.173828125	-1740.787841796875	46.81595993041992	-320.1654968261719	-1771.887939453125	55.20602798461914	-381.523193359375	-1839.541259765625	55.66252136230469	-298.362548828125	-1969.372436523438	113.4764556884766	-451.3455200195312	
185	1.84	-1749.262451171875	935.6919555664062	-491.7814331054688	-1674.5126953125	933.2440795898438	-613.4398193359375	-1696.217041015625	1033.837768554688	-529.4730834960938	-1435.779052734375	1200.225830078125	-391.761474609375	-1693.336791992188	1157.323486328125	-535.1309814453125	-1616.684204101562	1416.4755859375	-477.5107727050781	-1454.765625	1317.571411132812	-407.2831726074219	-1727.517211914062	1307.755981445312	-438.9623413085938	-1605.710571289062	1373.676879882812	-578.2220458984375	-1477.655883789062	1390.594970703125	-606.0004272460938	-1461.537719726562	1281.31396484375	-712.6812133789062	-1457.40185546875	1068.327758789062	-758.5398559570312	-1553.711303710938	1056.366943359375	-722.416015625	-1383.087890625	876.980224609375	-689.0345458984375	-1416.181884765625	852.3063354492188	-752.357421875	-1431.905517578125	981.6607055664062	-759.5794067382812	-1360.695190429688	711.0545043945312	-675.68701171875	-1400.024291992188	772.10986328125	-743.5223999023438	-1353.99853515625	791.4367065429688	-689.3115844726562	-1641.637329101562	1385.47314453125	-308.8783874511719	-1709.104614257812	1333.926391601562	-263.2180480957031	-1807.58154296875	1067.877319335938	-226.1345977783203	-1834.089599609375	1059.122436523438	-288.1410522460938	-1742.38330078125	846.2302856445312	-218.6935119628906	-1828.60791015625	852.41650390625	-201.9560089111328	-1821.281127929688	1010.5029296875	-217.5707550048828	-1785.295166015625	691.9886474609375	-214.6599884033203	-1760.83203125	746.7733764648438	-201.941650390625	-1834.7158203125	765.158935546875	-194.5537567138672	-1596.49365234375	1600.594970703125	-373.9498901367188	-1406.267333984375	1628.723022460938	-452.7114868164062	-1467.1865234375	1632.126708984375	-336.6439208984375	-1529.157104492188	1598.626220703125	-538.7616577148438	-1509.791015625	809.668212890625	-645.0721435546875	-1724.205810546875	830.5234375	-308.0335998535156	-1603.895263671875	863.5867919921875	-317.2631225585938	-1460.58837890625	846.2993774414062	-528.4794921875	-1562.347045898438	386.250732421875	-606.0552368164062	-1508.391723632812	536.5772705078125	-606.66259765625	-1790.684448242188	41.71148300170898	-732.3982543945312	-1631.614501953125	250.7479248046875	-655.170166015625	-1642.970581054688	47.10282135009766	-549.125732421875	-1717.976928710938	54.84498596191406	-564.0284423828125	-1658.450805664062	45.84334945678711	-663.2605590820312	-1865.610473632812	53.12767028808594	-719.799072265625	-1672.781127929688	442.4317932128906	-277.1031494140625	-1677.833251953125	698.4605102539062	-272.1118469238281	-1933.081298828125	104.8166885375977	-375.5653991699219	-1755.343627929688	321.451904296875	-293.1028747558594	-1740.061279296875	46.26956558227539	-320.1832885742188	-1770.627197265625	55.73800659179688	-380.8938598632812	-1837.646606445312	58.07450485229492	-297.2351989746094	-1965.192504882812	123.4963912963867	-448.5162353515625	
186	1.85	-1745.614624023438	932.2625122070312	-489.0682983398438	-1671.641235351562	930.5444946289062	-611.33642578125	-1692.29931640625	1032.327758789062	-527.3270263671875	-1429.905029296875	1196.320068359375	-388.7249145507812	-1687.846069335938	1155.63525390625	-532.5221557617188	-1608.676391601562	1413.947387695312	-474.1923828125	-1447.969848632812	1313.863525390625	-403.817626953125	-1720.566040039062	1306.073364257812	-436.0870971679688	-1597.68212890625	1371.332641601562	-575.08447265625	-1469.34716796875	1387.3115234375	-602.2162475585938	-1452.708129882812	1278.3818359375	-709.0625610351562	-1447.462280273438	1065.722045898438	-755.2991943359375	-1544.072387695312	1052.704467773438	-720.1630249023438	-1370.12841796875	876.602294921875	-682.724853515625	-1401.563598632812	850.5486450195312	-746.1365356445312	-1420.293334960938	979.539794921875	-755.280517578125	-1344.737548828125	711.3031005859375	-666.4351806640625	-1384.128784179688	770.6905517578125	-735.8411254882812	-1339.23095703125	791.5927124023438	-681.236572265625	-1634.300048828125	1382.794189453125	-305.618408203125	-1702.25146484375	1331.749755859375	-260.3265380859375	-1803.592041015625	1066.642944335938	-224.4647369384766	-1830.262329101562	1058.776977539062	-286.4851684570312	-1741.697509765625	843.8512573242188	-219.4067993164062	-1827.577514648438	851.5751342773438	-201.7375946044922	-1818.055786132812	1009.394104003906	-216.2814636230469	-1787.552612304688	690.3201904296875	-216.0225219726562	-1761.928344726562	744.538330078125	-203.1721649169922	-1835.361450195312	764.431640625	-194.8559875488281	-1589.1083984375	1597.12158203125	-370.9209899902344	-1398.833740234375	1625.40185546875	-449.4767761230469	-1459.937744140625	1628.939331054688	-333.5011901855469	-1521.52587890625	1594.92529296875	-535.6730346679688	-1506.788208007812	807.1546630859375	-643.6328125	-1718.331909179688	827.5581665039062	-304.8661499023438	-1598.685424804688	861.4078979492188	-315.7776489257812	-1456.874267578125	844.0108032226562	-527.5653686523438	-1553.637451171875	383.0516662597656	-603.1661987304688	-1500.859252929688	533.998291015625	-604.7811279296875	-1789.626953125	44.53628921508789	-732.5055541992188	-1625.803955078125	249.4230346679688	-653.6489868164062	-1642.568969726562	46.70065307617188	-548.8414306640625	-1717.113891601562	55.29558181762695	-564.21630859375	-1657.893432617188	45.40998458862305	-663.4813232421875	-1864.336547851562	58.05098342895508	-720.1310424804688	-1658.83984375	441.2493591308594	-270.8068237304688	-1669.06640625	696.4344482421875	-268.5091247558594	-1928.752685546875	112.8874588012695	-372.9629821777344	-1744.102905273438	322.5510864257812	-287.8208312988281	-1739.052978515625	45.60492324829102	-320.0587158203125	-1769.093383789062	56.56221008300781	-380.0356140136719	-1835.309448242188	61.00668334960938	-295.7931518554688	-1960.240112304688	134.1393432617188	-445.3297424316406	
187	1.86	-1742.14404296875	928.57763671875	-486.1593933105469	-1668.967163085938	927.7379150390625	-609.0056762695312	-1688.581787109375	1030.5693359375	-525.0496215820312	-1423.985473632812	1192.033325195312	-385.5820922851562	-1682.383911132812	1153.781616210938	-529.7156372070312	-1600.5185546875	1411.182250976562	-470.7277221679688	-1441.035522460938	1309.783813476562	-400.2246704101562	-1713.480102539062	1304.198486328125	-433.0154113769531	-1589.524536132812	1368.68505859375	-571.8151245117188	-1460.888793945312	1383.627807617188	-598.2957153320312	-1443.648803710938	1274.96875	-705.24462890625	-1436.96533203125	1062.783935546875	-751.8794555664062	-1533.885864257812	1048.471313476562	-717.8329467773438	-1356.318603515625	876.3101196289062	-676.0581665039062	-1385.926513671875	848.7642822265625	-739.4967041015625	-1407.951538085938	977.2021484375	-750.7059936523438	-1327.476684570312	711.8211669921875	-656.7365112304688	-1367.004028320312	769.3856201171875	-727.7122192382812	-1323.391967773438	791.9932250976562	-672.752685546875	-1626.744140625	1379.839721679688	-302.1670532226562	-1695.174926757812	1329.292724609375	-257.2350463867188	-1799.497924804688	1065.211059570312	-222.6528930664062	-1826.355834960938	1058.3349609375	-284.6787109375	-1741.317016601562	841.2675170898438	-220.2771148681641	-1826.77734375	850.6414794921875	-201.5361022949219	-1814.8154296875	1008.133178710938	-214.8833312988281	-1790.401489257812	688.5927734375	-217.6339874267578	-1763.447631835938	742.181884765625	-204.6306610107422	-1836.386108398438	763.6528930664062	-195.2599487304688	-1581.602905273438	1593.35400390625	-367.7674560546875	-1391.255981445312	1621.822875976562	-446.0990905761719	-1452.565551757812	1625.486938476562	-330.2195129394531	-1513.76025390625	1590.95068359375	-532.4527587890625	-1503.905883789062	804.6759033203125	-642.113037109375	-1712.53564453125	824.37548828125	-301.5594177246094	-1593.556274414062	859.030029296875	-314.1345520019531	-1453.272827148438	841.6235961914062	-526.566650390625	-1544.536865234375	379.8791809082031	-600.3699340820312	-1493.091186523438	531.4793701171875	-603.1126708984375	-1788.429565429688	47.72754669189453	-732.5974731445312	-1619.707885742188	248.2580108642578	-652.2526245117188	-1642.096069335938	46.35887908935547	-548.567138671875	-1716.119750976562	55.82480621337891	-564.4166259765625	-1657.2783203125	44.97677230834961	-663.6633911132812	-1862.812744140625	63.45967483520508	-720.3502807617188	-1644.415161132812	440.1866455078125	-264.3609008789062	-1660.223022460938	694.3511962890625	-264.641845703125	-1923.652465820312	121.4634857177734	-370.0150451660156	-1732.293823242188	323.9060668945312	-282.3555297851562	-1737.615234375	44.85963439941406	-319.6853942871094	-1767.12890625	57.77654647827148	-378.8652648925781	-1832.386962890625	64.53350830078125	-293.9874267578125	-1954.429077148438	145.2510223388672	-441.7819519042969	
